<?xml version="1.0" encoding="UTF-8" standalone="no"?>
<!DOCTYPE svg PUBLIC "-//W3C//DTD SVG 1.1//EN"
 "http://www.w3.org/Graphics/SVG/1.1/DTD/svg11.dtd">
<!-- Generated by graphviz version 2.43.0 (0)
 -->
<!-- Title: variants Pages: 1 -->
<svg width="1060pt" height="292pt"
 viewBox="0.00 0.00 1059.60 291.60" xmlns="http://www.w3.org/2000/svg" xmlns:xlink="http://www.w3.org/1999/xlink">
<g id="graph0" class="graph" transform="scale(1 1) rotate(0) translate(28.8 262.8)">
<title>variants</title>
<polygon fill="white" stroke="transparent" points="-28.8,28.8 -28.8,-262.8 1030.8,-262.8 1030.8,28.8 -28.8,28.8"/>
<text text-anchor="middle" x="501" y="-215.6" font-family="DejaVu Sans" font-size="18.00">The six programs as a deliberate progression</text>
<text text-anchor="middle" x="501" y="-195.6" font-family="DejaVu Sans" font-size="18.00">(what each variant adds)</text>
<!-- v1 -->
<g id="node1" class="node">
<title>v1</title>
<path fill="#dbeafe" stroke="#475569" d="M244,-183.5C244,-183.5 117,-183.5 117,-183.5 111,-183.5 105,-177.5 105,-171.5 105,-171.5 105,-159.5 105,-159.5 105,-153.5 111,-147.5 117,-147.5 117,-147.5 244,-147.5 244,-147.5 250,-147.5 256,-153.5 256,-159.5 256,-159.5 256,-171.5 256,-171.5 256,-177.5 250,-183.5 244,-183.5"/>
<text text-anchor="middle" x="180.5" y="-168.5" font-family="DejaVu Sans" font-size="10.00">IDDFileSearch</text>
<text text-anchor="middle" x="180.5" y="-157.5" font-family="DejaVu Sans" font-size="10.00">baseline IDDFS by filename</text>
</g>
<!-- v2 -->
<g id="node2" class="node">
<title>v2</title>
<path fill="#dbeafe" stroke="#475569" d="M425,-186C425,-186 309,-186 309,-186 303,-186 297,-180 297,-174 297,-174 297,-157 297,-157 297,-151 303,-145 309,-145 309,-145 425,-145 425,-145 431,-145 437,-151 437,-157 437,-157 437,-174 437,-174 437,-180 431,-186 425,-186"/>
<text text-anchor="middle" x="367" y="-174" font-family="DejaVu Sans" font-size="10.00">…_ExceptionHandled</text>
<text text-anchor="middle" x="367" y="-163" font-family="DejaVu Sans" font-size="10.00">+ try/catch around fs ops</text>
<text text-anchor="middle" x="367" y="-152" font-family="DejaVu Sans" font-size="10.00">(permission / IO errors)</text>
</g>
<!-- v1&#45;&gt;v2 -->
<g id="edge1" class="edge">
<title>v1&#45;&gt;v2</title>
<path fill="none" stroke="#64748b" d="M256.01,-165.5C266.14,-165.5 276.56,-165.5 286.77,-165.5"/>
<polygon fill="#64748b" stroke="#64748b" points="286.88,-169 296.88,-165.5 286.88,-162 286.88,-169"/>
</g>
<!-- bfs -->
<g id="node6" class="node">
<title>bfs</title>
<path fill="#fde68a" stroke="#475569" d="M228.5,-104C228.5,-104 132.5,-104 132.5,-104 126.5,-104 120.5,-98 120.5,-92 120.5,-92 120.5,-75 120.5,-75 120.5,-69 126.5,-63 132.5,-63 132.5,-63 228.5,-63 228.5,-63 234.5,-63 240.5,-69 240.5,-75 240.5,-75 240.5,-92 240.5,-92 240.5,-98 234.5,-104 228.5,-104"/>
<text text-anchor="middle" x="180.5" y="-92" font-family="DejaVu Sans" font-size="10.00">BFSFileSearch</text>
<text text-anchor="middle" x="180.5" y="-81" font-family="DejaVu Sans" font-size="10.00">alternative algorithm</text>
<text text-anchor="middle" x="180.5" y="-70" font-family="DejaVu Sans" font-size="10.00">(level&#45;order)</text>
</g>
<!-- v1&#45;&gt;bfs -->
<g id="edge5" class="edge">
<title>v1&#45;&gt;bfs</title>
<path fill="none" stroke="#b45309" stroke-dasharray="5,2" d="M180.5,-147.33C180.5,-137.66 180.5,-125.5 180.5,-114.4"/>
<polygon fill="#b45309" stroke="#b45309" points="184,-114.19 180.5,-104.19 177,-114.19 184,-114.19"/>
<text text-anchor="middle" x="167.5" y="-128.55" font-family="DejaVu Sans" font-size="9.00">branch:</text>
<text text-anchor="middle" x="167.5" y="-118.55" font-family="DejaVu Sans" font-size="9.00">swap traversal</text>
</g>
<!-- ch -->
<g id="node7" class="node">
<title>ch</title>
<path fill="#ede9fe" stroke="#475569" stroke-dasharray="5,2" d="M241,-41C241,-41 120,-41 120,-41 114,-41 108,-35 108,-29 108,-29 108,-12 108,-12 108,-6 114,0 120,0 120,0 241,0 241,0 247,0 253,-6 253,-12 253,-12 253,-29 253,-29 253,-35 247,-41 241,-41"/>
<text text-anchor="middle" x="180.5" y="-29" font-family="DejaVu Sans" font-size="10.00">IterativeDeepening.chpl</text>
<text text-anchor="middle" x="180.5" y="-18" font-family="DejaVu Sans" font-size="10.00">Chapel re&#45;implementation</text>
<text text-anchor="middle" x="180.5" y="-7" font-family="DejaVu Sans" font-size="10.00">(language study)</text>
</g>
<!-- v1&#45;&gt;ch -->
<g id="edge6" class="edge">
<title>v1&#45;&gt;ch</title>
<path fill="none" stroke="#6d28d9" stroke-dasharray="1,5" d="M127.07,-147.37C100.47,-134.78 75.43,-115.39 83,-88.5 88.08,-70.45 90.8,-64.74 105,-52.5 107.48,-50.36 110.12,-48.35 112.88,-46.46"/>
<polygon fill="#6d28d9" stroke="#6d28d9" points="114.8,-49.39 121.45,-41.14 111.11,-43.44 114.8,-49.39"/>
<text text-anchor="middle" x="75.5" y="-91.3" font-family="DejaVu Sans" font-size="9.00">port</text>
</g>
<!-- v3 -->
<g id="node3" class="node">
<title>v3</title>
<path fill="#dbeafe" stroke="#475569" d="M581,-186C581,-186 490,-186 490,-186 484,-186 478,-180 478,-174 478,-174 478,-157 478,-157 478,-151 484,-145 490,-145 490,-145 581,-145 581,-145 587,-145 593,-151 593,-157 593,-157 593,-174 593,-174 593,-180 587,-186 581,-186"/>
<text text-anchor="middle" x="535.5" y="-174" font-family="DejaVu Sans" font-size="10.00">…_CmdLine</text>
<text text-anchor="middle" x="535.5" y="-163" font-family="DejaVu Sans" font-size="10.00">+ argv parsing</text>
<text text-anchor="middle" x="535.5" y="-152" font-family="DejaVu Sans" font-size="10.00">(path, target, depth)</text>
</g>
<!-- v2&#45;&gt;v3 -->
<g id="edge2" class="edge">
<title>v2&#45;&gt;v3</title>
<path fill="none" stroke="#64748b" d="M437.16,-165.5C447.24,-165.5 457.61,-165.5 467.64,-165.5"/>
<polygon fill="#64748b" stroke="#64748b" points="467.95,-169 477.95,-165.5 467.95,-162 467.95,-169"/>
</g>
<!-- v4 -->
<g id="node4" class="node">
<title>v4</title>
<path fill="#bfdbfe" stroke="#475569" d="M761,-186C761,-186 646,-186 646,-186 640,-186 634,-180 634,-174 634,-174 634,-157 634,-157 634,-151 640,-145 646,-145 646,-145 761,-145 761,-145 767,-145 773,-151 773,-157 773,-157 773,-174 773,-174 773,-180 767,-186 761,-186"/>
<text text-anchor="middle" x="703.5" y="-174" font-family="DejaVu Sans" font-size="10.00">…_Extension</text>
<text text-anchor="middle" x="703.5" y="-163" font-family="DejaVu Sans" font-size="10.00">+ match by extension</text>
<text text-anchor="middle" x="703.5" y="-152" font-family="DejaVu Sans" font-size="10.00">+ explicit max&#45;depth arg</text>
</g>
<!-- v3&#45;&gt;v4 -->
<g id="edge3" class="edge">
<title>v3&#45;&gt;v4</title>
<path fill="none" stroke="#64748b" d="M593.16,-165.5C602.96,-165.5 613.29,-165.5 623.55,-165.5"/>
<polygon fill="#64748b" stroke="#64748b" points="623.75,-169 633.75,-165.5 623.75,-162 623.75,-169"/>
</g>
<!-- v5 -->
<g id="node5" class="node">
<title>v5</title>
<path fill="#a5b4fc" stroke="#475569" d="M990,-183.5C990,-183.5 826,-183.5 826,-183.5 820,-183.5 814,-177.5 814,-171.5 814,-171.5 814,-159.5 814,-159.5 814,-153.5 820,-147.5 826,-147.5 826,-147.5 990,-147.5 990,-147.5 996,-147.5 1002,-153.5 1002,-159.5 1002,-159.5 1002,-171.5 1002,-171.5 1002,-177.5 996,-183.5 990,-183.5"/>
<text text-anchor="middle" x="908" y="-168.5" font-family="DejaVu Sans" font-size="10.00">…_Extension_Concurrent</text>
<text text-anchor="middle" x="908" y="-157.5" font-family="DejaVu Sans" font-size="10.00">+ pthreads: parallel subtree search</text>
</g>
<!-- v4&#45;&gt;v5 -->
<g id="edge4" class="edge">
<title>v4&#45;&gt;v5</title>
<path fill="none" stroke="#64748b" d="M773.06,-165.5C782.87,-165.5 793.14,-165.5 803.44,-165.5"/>
<polygon fill="#64748b" stroke="#64748b" points="803.73,-169 813.73,-165.5 803.73,-162 803.73,-169"/>
</g>
</g>
</svg>
